<svg xmlns="http://www.w3.org/2000/svg" viewBox="0 0 804.59 189.67"><defs><style>.cls-1{fill:#1ddc78;}</style></defs><g id="Layer_2" data-name="Layer 2"><g id="Logo_1" data-name="Logo 1"><path class="cls-1" d="M164.56,25v12.3h-12.3V25Zm-12.3,28.5h12.3v87h-12.3Z"/><path class="cls-1" d="M195.9,65.76v56.55a6,6,0,0,0,5.85,5.85h31.8v12.3h-31.8a18,18,0,0,1-18.14-18.15V25H195.9v28.5h37.65v12.3Z"/><path class="cls-1" d="M333,72.81H320.55v-1.2a6,6,0,0,0-5.85-5.85H262.5a6,6,0,0,0-5.85,5.85V85a6,6,0,0,0,5.85,5.85h52.2A18.15,18.15,0,0,1,333,109v13.35a18.15,18.15,0,0,1-18.3,18.15H262.5a18.12,18.12,0,0,1-18.15-18.15v-1.2h12.3v1.2a6,6,0,0,0,5.85,5.85h52.2a6,6,0,0,0,5.85-5.85V109a6,6,0,0,0-5.85-5.85H262.5A18.12,18.12,0,0,1,244.35,85V71.61A18.12,18.12,0,0,1,262.5,53.46h52.2A18.15,18.15,0,0,1,333,71.61Z"/><path class="cls-1" d="M497,53.46l-32.85,87H453.45l-32.4-71.85L390.3,140.46H379.5c-11.7-29.55-22.65-57.6-34.2-87h13.2l26.4,64.8L413,53.46h16.2L459,118.11l24.6-64.65Z"/><path class="cls-1" d="M520.8,25v12.3H508.5V25Zm-12.3,28.5h12.3v87H508.5Z"/><path class="cls-1" d="M606.75,53.46v12.3h-48.9A6,6,0,0,0,552,71.61v68.85H539.7V71.61a18.12,18.12,0,0,1,18.15-18.15Z"/><path class="cls-1" d="M705,71.61v31.5H628.65v19.2a6,6,0,0,0,5.85,5.85H705v12.3H634.5a18.12,18.12,0,0,1-18.15-18.15V71.61A18.12,18.12,0,0,1,634.5,53.46h52.2A18.15,18.15,0,0,1,705,71.61Zm-12.45,19.2V71.61a5.86,5.86,0,0,0-5.85-5.85H634.5a6,6,0,0,0-5.85,5.85v19.2Z"/><path class="cls-1" d="M804.59,25v115.5H734.25A18.15,18.15,0,0,1,716,122.31V71.61a18.15,18.15,0,0,1,18.3-18.15h58V25Zm-18.15,103.2a6,6,0,0,0,5.85-5.85V71.61a6,6,0,0,0-5.85-5.85H734.25a6,6,0,0,0-5.85,5.85v50.7a6,6,0,0,0,5.85,5.85Z"/><path class="cls-1" d="M125.91,105.75,107,94.84l18.91-10.92a21.06,21.06,0,0,0,0-36.48l-70-42.66C36.2-7.19,11.53,4.59,7.21,25.86a11.9,11.9,0,1,0,10.5.57A21.46,21.46,0,0,1,49.46,13.65l71.23,42.82a10.63,10.63,0,0,1,0,18.42l-4.23,2.44A14.46,14.46,0,0,0,109.53,68L61.42,40.2a11.17,11.17,0,0,0,.1-1.42,11.89,11.89,0,0,0-23.77-.2h0c0,.07,0,.13,0,.2A11.87,11.87,0,0,0,55.73,49l48.58,28a4.23,4.23,0,0,1,0,7.33l-7.74,4.47h0L36.9,54.36h0a7,7,0,0,0-10.43,6v68.9h0a7,7,0,0,0,10.43,6h0l59.67-34.45h0l7.74,4.47a4.23,4.23,0,0,1,0,7.33L55.73,140.71a11.87,11.87,0,0,0-18,10.19c0,.06,0,.13,0,.19h0a11.89,11.89,0,0,0,23.77-.19,11.19,11.19,0,0,0-.1-1.43l48.11-27.77a14.47,14.47,0,0,0,6.93-9.35l4.23,2.44a10.62,10.62,0,0,1,0,18.41L49.46,176a21.45,21.45,0,0,1-31.75-12.77,11.88,11.88,0,1,0-10.5.57c4.32,21.26,29,33,48.65,21.07l70.05-42.65A21.07,21.07,0,0,0,125.91,105.75Zm-89,17.51h0V66.41L86.13,94.84h0Z"/></g></g></svg>